{
  "accessors": [
    {
      "bufferView": 2,
      "componentType": 5126,
      "count": 65532,
      "max": [
        1.4812602996826172,
        2.058708667755127,
        1.4322412014007568
      ],
      "min": [
        -1.4662213325500488,
        -2.2899131774902344,
        -1.152151346206665
      ],
      "type": "VEC3"
    },
    {
      "bufferView": 2,
      "byteOffset": 786384,
      "componentType": 5126,
      "count": 65532,
      "max": [
        0.9999995827674866,
        0.9999373555183411,
        0.9999942779541016
      ],
      "min": [
        -0.9999992847442627,
        -0.9999952912330627,
        -0.9999988079071045
      ],
      "type": "VEC3"
    },
    {
      "bufferView": 1,
      "componentType": 5126,
      "count": 65532,
      "max": [
        0.9979179501533508,
        0.9931639432907104
      ],
      "min": [
        0.0009765625,
        0.0021539523731917143
      ],
      "type": "VEC2"
    },
    {
      "bufferView": 0,
      "componentType": 5125,
      "count": 317823,
      "type": "SCALAR"
    },
    {
      "bufferView": 2,
      "byteOffset": 1572768,
      "componentType": 5126,
      "count": 65532,
      "max": [
        1.4681739807128906,
        0.15183132886886597,
        1.0984281301498413
      ],
      "min": [
        -1.464036226272583,
        -2.286616563796997,
        -1.0076031684875488
      ],
      "type": "VEC3"
    },
    {
      "bufferView": 2,
      "byteOffset": 2359152,
      "componentType": 5126,
      "count": 65532,
      "max": [
        0.9999978542327881,
        0.9999650120735168,
        0.9999975562095642
      ],
      "min": [
        -0.9999780654907227,
        -0.9999959468841553,
        -0.905990719795227
      ],
      "type": "VEC3"
    },
    {
      "bufferView": 1,
      "byteOffset": 524256,
      "componentType": 5126,
      "count": 65532,
      "max": [
        0.9978190064430237,
        0.9891846179962158
      ],
      "min": [
        0.0009765625,
        0.0020106032025069
      ],
      "type": "VEC2"
    },
    {
      "bufferView": 0,
      "byteOffset": 1271292,
      "componentType": 5125,
      "count": 290634,
      "type": "SCALAR"
    },
    {
      "bufferView": 2,
      "byteOffset": 3145536,
      "componentType": 5126,
      "count": 65532,
      "max": [
        1.4735057353973389,
        2.060051918029785,
        1.0147833824157715
      ],
      "min": [
        -1.3463034629821777,
        -2.308758020401001,
        -1.1619834899902344
      ],
      "type": "VEC3"
    },
    {
      "bufferView": 2,
      "byteOffset": 3931920,
      "componentType": 5126,
      "count": 65532,
      "max": [
        0.999998152256012,
        0.9999848008155823,
        0.999992311000824
      ],
      "min": [
        -0.9989210963249207,
        -0.9999945163726807,
        -0.9999988079071045
      ],
      "type": "VEC3"
    },
    {
      "bufferView": 1,
      "byteOffset": 1048512,
      "componentType": 5126,
      "count": 65532,
      "max": [
        0.9980241060256958,
        0.9931639432907104
      ],
      "min": [
        0.0009765625,
        0.0022447898518294096
      ],
      "type": "VEC2"
    },
    {
      "bufferView": 0,
      "byteOffset": 2433828,
      "componentType": 5125,
      "count": 289593,
      "type": "SCALAR"
    },
    {
      "bufferView": 2,
      "byteOffset": 4718304,
      "componentType": 5126,
      "count": 65532,
      "max": [
        1.4449572563171387,
        2.0667762756347656,
        1.278291940689087
      ],
      "min": [
        -1.4662182331085205,
        0.07626503705978394,
        -1.1646416187286377
      ],
      "type": "VEC3"
    },
    {
      "bufferView": 2,
      "byteOffset": 5504688,
      "componentType": 5126,
      "count": 65532,
      "max": [
        0.9999576807022095,
        0.9999989867210388,
        0.9999834299087524
      ],
      "min": [
        -0.9999955892562866,
        -0.9999940395355225,
        -0.9999971985816956
      ],
      "type": "VEC3"
    },
    {
      "bufferView": 1,
      "byteOffset": 1572768,
      "componentType": 5126,
      "count": 65532,
      "max": [
        0.9980173110961914,
        0.9631796479225159
      ],
      "min": [
        0.0009765625,
        0.003286738647148013
      ],
      "type": "VEC2"
    },
    {
      "bufferView": 0,
      "byteOffset": 3592200,
      "componentType": 5125,
      "count": 294951,
      "type": "SCALAR"
    },
    {
      "bufferView": 2,
      "byteOffset": 6291072,
      "componentType": 5126,
      "count": 65532,
      "max": [
        1.4696202278137207,
        2.059854507446289,
        2.018273115158081
      ],
      "min": [
        -1.467979907989502,
        -1.223297119140625,
        -1.1646416187286377
      ],
      "type": "VEC3"
    },
    {
      "bufferView": 2,
      "byteOffset": 7077456,
      "componentType": 5126,
      "count": 65532,
      "max": [
        0.9999998807907104,
        0.9999521374702454,
        0.9999737739562988
      ],
      "min": [
        -0.9999991059303284,
        -0.9999653697013855,
        -0.9749263525009155
      ],
      "type": "VEC3"
    },
    {
      "bufferView": 1,
      "byteOffset": 2097024,
      "componentType": 5126,
      "count": 65532,
      "max": [
        0.9979970455169678,
        0.9931639432907104
      ],
      "min": [
        0.0009765625,
        0.0020363524090498686
      ],
      "type": "VEC2"
    },
    {
      "bufferView": 0,
      "byteOffset": 4772004,
      "componentType": 5125,
      "count": 272691,
      "type": "SCALAR"
    },
    {
      "bufferView": 2,
      "byteOffset": 7863840,
      "componentType": 5126,
      "count": 65532,
      "max": [
        1.4701972007751465,
        2.065108299255371,
        1.0173015594482422
      ],
      "min": [
        -1.4856281280517578,
        -2.308758020401001,
        -1.1541597843170166
      ],
      "type": "VEC3"
    },
    {
      "bufferView": 2,
      "byteOffset": 8650224,
      "componentType": 5126,
      "count": 65532,
      "max": [
        0.9999998807907104,
        0.9999989867210388,
        1.0
      ],
      "min": [
        -0.9999961853027344,
        -0.999890148639679,
        -0.9999988079071045
      ],
      "type": "VEC3"
    },
    {
      "bufferView": 1,
      "byteOffset": 2621280,
      "componentType": 5126,
      "count": 65532,
      "max": [
        0.998033344745636,
        0.9990233182907104
      ],
      "min": [
        0.0009765625,
        0.001988966716453433
      ],
      "type": "VEC2"
    },
    {
      "bufferView": 0,
      "byteOffset": 5862768,
      "componentType": 5125,
      "count": 250398,
      "type": "SCALAR"
    },
    {
      "bufferView": 2,
      "byteOffset": 9436608,
      "componentType": 5126,
      "count": 65532,
      "max": [
        1.4263180494308472,
        0.07743090391159058,
        1.0130683183670044
      ],
      "min": [
        -1.466951847076416,
        -2.292154312133789,
        -1.152151346206665
      ],
      "type": "VEC3"
    },
    {
      "bufferView": 2,
      "byteOffset": 10222992,
      "componentType": 5126,
      "count": 65532,
      "max": [
        0.9999948143959045,
        0.9999964833259583,
        0.9999983906745911
      ],
      "min": [
        -0.9999999403953552,
        -0.9999913573265076,
        -0.9778938293457031
      ],
      "type": "VEC3"
    },
    {
      "bufferView": 1,
      "byteOffset": 3145536,
      "componentType": 5126,
      "count": 65532,
      "max": [
        0.9980076551437378,
        0.9604288339614868
      ],
      "min": [
        0.0009765625,
        0.0021187260281294584
      ],
      "type": "VEC2"
    },
    {
      "bufferView": 0,
      "byteOffset": 6864360,
      "componentType": 5125,
      "count": 293937,
      "type": "SCALAR"
    },
    {
      "bufferView": 2,
      "byteOffset": 11009376,
      "componentType": 5126,
      "count": 6624,
      "max": [
        1.4785921573638916,
        -0.18305140733718872,
        0.8115944862365723
      ],
      "min": [
        -0.7163401246070862,
        -2.2899131774902344,
        -1.0076031684875488
      ],
      "type": "VEC3"
    },
    {
      "bufferView": 2,
      "byteOffset": 11088864,
      "componentType": 5126,
      "count": 6624,
      "max": [
        0.9989374279975891,
        0.9978961944580078,
        0.9999917149543762
      ],
      "min": [
        -0.986131489276886,
        -0.9998118281364441,
        -0.4654086232185364
      ],
      "type": "VEC3"
    },
    {
      "bufferView": 1,
      "byteOffset": 3669792,
      "componentType": 5126,
      "count": 6624,
      "max": [
        0.9971701502799988,
        0.9609373807907104
      ],
      "min": [
        0.0038188074249774218,
        0.0021553828846663237
      ],
      "type": "VEC2"
    },
    {
      "bufferView": 0,
      "byteOffset": 8040108,
      "componentType": 5125,
      "count": 26565,
      "type": "SCALAR"
    }
  ],
  "asset": {
    "extras": {
      "author": "333DDD (https://sketchfab.com/333DDD-oficial)",
      "license": "CC-BY-4.0 (http://creativecommons.org/licenses/by/4.0/)",
      "source": "https://sketchfab.com/3d-models/castle-of-veves-cd4aecc5c31c451a964174bc2bdbea01",
      "title": "Castle-Of-Veves"
    },
    "generator": "Sketchfab-16.12.0",
    "version": "2.0"
  },
  "bufferViews": [
    {
      "buffer": 0,
      "byteLength": 8146368,
      "name": "floatBufferViews",
      "target": 34963
    },
    {
      "buffer": 0,
      "byteLength": 3722784,
      "byteOffset": 8146368,
      "byteStride": 8,
      "name": "floatBufferViews",
      "target": 34962
    },
    {
      "buffer": 0,
      "byteLength": 11168352,
      "byteOffset": 11869152,
      "byteStride": 12,
      "name": "floatBufferViews",
      "target": 34962
    }
  ],
  "buffers": [
    {
      "byteLength": 23037504,
      "uri": "scene.bin"
    }
  ],
  "extensionsUsed": [
    "KHR_materials_unlit"
  ],
  "images": [
    {
      "uri": "textures/Castle-Of-Veves_u1_v1_baseColor.png"
    }
  ],
  "materials": [
    {
      "doubleSided": true,
      "extensions": {
        "KHR_materials_unlit": {}
      },
      "name": "Castle-Of-Veves_u1_v1",
      "pbrMetallicRoughness": {
        "baseColorTexture": {
          "index": 0
        },
        "metallicFactor": 0.0
      }
    }
  ],
  "meshes": [
    {
      "name": "Castle-Of-Veves_Castle-Of-Veves_u1_v1_0",
      "primitives": [
        {
          "attributes": {
            "NORMAL": 1,
            "POSITION": 0,
            "TEXCOORD_0": 2
          },
          "indices": 3,
          "material": 0,
          "mode": 4
        }
      ]
    },
    {
      "name": "Castle-Of-Veves_Castle-Of-Veves_u1_v1_0",
      "primitives": [
        {
          "attributes": {
            "NORMAL": 5,
            "POSITION": 4,
            "TEXCOORD_0": 6
          },
          "indices": 7,
          "material": 0,
          "mode": 4
        }
      ]
    },
    {
      "name": "Castle-Of-Veves_Castle-Of-Veves_u1_v1_0",
      "primitives": [
        {
          "attributes": {
            "NORMAL": 9,
            "POSITION": 8,
            "TEXCOORD_0": 10
          },
          "indices": 11,
          "material": 0,
          "mode": 4
        }
      ]
    },
    {
      "name": "Castle-Of-Veves_Castle-Of-Veves_u1_v1_0",
      "primitives": [
        {
          "attributes": {
            "NORMAL": 13,
            "POSITION": 12,
            "TEXCOORD_0": 14
          },
          "indices": 15,
          "material": 0,
          "mode": 4
        }
      ]
    },
    {
      "name": "Castle-Of-Veves_Castle-Of-Veves_u1_v1_0",
      "primitives": [
        {
          "attributes": {
            "NORMAL": 17,
            "POSITION": 16,
            "TEXCOORD_0": 18
          },
          "indices": 19,
          "material": 0,
          "mode": 4
        }
      ]
    },
    {
      "name": "Castle-Of-Veves_Castle-Of-Veves_u1_v1_0",
      "primitives": [
        {
          "attributes": {
            "NORMAL": 21,
            "POSITION": 20,
            "TEXCOORD_0": 22
          },
          "indices": 23,
          "material": 0,
          "mode": 4
        }
      ]
    },
    {
      "name": "Castle-Of-Veves_Castle-Of-Veves_u1_v1_0",
      "primitives": [
        {
          "attributes": {
            "NORMAL": 25,
            "POSITION": 24,
            "TEXCOORD_0": 26
          },
          "indices": 27,
          "material": 0,
          "mode": 4
        }
      ]
    },
    {
      "name": "Castle-Of-Veves_Castle-Of-Veves_u1_v1_0",
      "primitives": [
        {
          "attributes": {
            "NORMAL": 29,
            "POSITION": 28,
            "TEXCOORD_0": 30
          },
          "indices": 31,
          "material": 0,
          "mode": 4
        }
      ]
    }
  ],
  "nodes": [
    {
      "children": [
        1
      ],
      "matrix": [
        1.0,
        0.0,
        0.0,
        0.0,
        0.0,
        2.220446049250313e-16,
        -1.0,
        0.0,
        0.0,
        1.0,
        2.220446049250313e-16,
        0.0,
        0.0,
        0.0,
        0.0,
        1.0
      ],
      "name": "Sketchfab_model"
    },
    {
      "children": [
        2
      ],
      "matrix": [
        0.009999999776482582,
        0.0,
        0.0,
        0.0,
        0.0,
        0.0,
        0.009999999776482582,
        0.0,
        0.0,
        -0.009999999776482582,
        0.0,
        0.0,
        0.0,
        0.0,
        0.0,
        1.0
      ],
      "name": "Castle-Of-Veves.fbx"
    },
    {
      "children": [
        3
      ],
      "name": "RootNode"
    },
    {
      "children": [
        4,
        5,
        6,
        7,
        8,
        9,
        10,
        11
      ],
      "matrix": [
        7.549789959870878e-06,
        1.1102230246251565e-14,
        99.99999999999972,
        0.0,
        99.99999999999962,
        -4.371139006309477e-06,
        -7.549789954319763e-06,
        0.0,
        4.371139006309477e-06,
        99.99999999999991,
        -3.552713678800501e-13,
        0.0,
        0.0,
        0.0,
        0.0,
        1.0
      ],
      "name": "Castle-Of-Veves"
    },
    {
      "mesh": 0,
      "name": "Castle-Of-Veves_Castle-Of-Veves_u1_v1_0"
    },
    {
      "mesh": 1,
      "name": "Castle-Of-Veves_Castle-Of-Veves_u1_v1_0"
    },
    {
      "mesh": 2,
      "name": "Castle-Of-Veves_Castle-Of-Veves_u1_v1_0"
    },
    {
      "mesh": 3,
      "name": "Castle-Of-Veves_Castle-Of-Veves_u1_v1_0"
    },
    {
      "mesh": 4,
      "name": "Castle-Of-Veves_Castle-Of-Veves_u1_v1_0"
    },
    {
      "mesh": 5,
      "name": "Castle-Of-Veves_Castle-Of-Veves_u1_v1_0"
    },
    {
      "mesh": 6,
      "name": "Castle-Of-Veves_Castle-Of-Veves_u1_v1_0"
    },
    {
      "mesh": 7,
      "name": "Castle-Of-Veves_Castle-Of-Veves_u1_v1_0"
    }
  ],
  "samplers": [
    {
      "magFilter": 9729,
      "minFilter": 9987,
      "wrapS": 10497,
      "wrapT": 10497
    }
  ],
  "scene": 0,
  "scenes": [
    {
      "name": "Sketchfab_Scene",
      "nodes": [
        0
      ]
    }
  ],
  "textures": [
    {
      "sampler": 0,
      "source": 0
    }
  ]
}
